<svg id="svg" version="1.1" xmlns="http://www.w3.org/2000/svg" xmlns:xlink="http://www.w3.org/1999/xlink" width="400" height="400" viewBox="0, 0, 400,400"><g id="svgg"><path id="path0" d="M50.800 142.400 L 50.800 198.834 53.900 198.717 L 57.000 198.600 57.107 188.543 C 57.189 180.764,57.334 178.387,57.746 178.045 C 58.126 177.729,72.131 177.574,106.839 177.502 L 155.400 177.400 155.522 175.017 C 155.590 173.706,155.553 172.266,155.440 171.817 L 155.235 171.000 108.318 171.092 C 82.513 171.143,60.500 171.050,59.400 170.887 L 57.400 170.590 57.297 144.240 C 57.222 125.108,57.318 117.740,57.646 117.344 C 58.023 116.891,66.142 116.800,106.400 116.800 C 149.075 116.800,154.761 116.729,155.205 116.194 C 155.824 115.448,155.420 111.187,154.687 110.721 C 154.419 110.551,132.577 110.409,106.149 110.406 C 66.594 110.401,58.020 110.306,57.655 109.867 C 57.360 109.511,57.177 105.485,57.106 97.767 L 57.000 86.200 53.900 86.083 L 50.800 85.966 50.800 142.400 M342.100 86.257 C 341.716 86.418,341.600 89.149,341.600 97.984 C 341.600 107.157,341.490 109.593,341.061 109.950 C 340.670 110.273,325.841 110.425,287.361 110.499 L 234.200 110.600 233.951 113.200 C 233.815 114.630,233.789 116.025,233.894 116.300 C 234.046 116.697,245.164 116.800,287.635 116.800 L 341.185 116.800 341.406 117.700 C 341.527 118.195,341.575 122.380,341.513 127.000 L 341.400 135.400 317.000 135.600 C 298.717 135.750,292.318 135.925,291.474 136.300 C 290.855 136.575,289.685 136.804,288.874 136.809 C 288.063 136.814,286.680 137.144,285.800 137.542 C 284.920 137.941,283.662 138.401,283.005 138.565 C 281.595 138.917,276.294 141.526,275.989 142.019 C 275.872 142.207,275.379 142.507,274.893 142.687 C 273.967 143.030,268.000 148.697,268.000 149.234 C 268.000 149.404,267.741 149.802,267.424 150.119 C 266.615 150.928,263.602 156.864,263.601 157.651 C 263.600 158.009,263.330 158.526,263.000 158.800 C 262.670 159.074,262.400 159.910,262.400 160.659 C 262.400 161.408,262.040 163.044,261.600 164.296 C 261.160 165.548,260.800 167.438,260.800 168.496 C 260.800 171.174,260.821 171.171,246.429 171.079 C 238.380 171.028,233.984 171.141,233.955 171.400 C 233.931 171.620,233.857 172.790,233.791 174.000 C 233.576 177.943,232.336 177.600,246.798 177.600 C 262.201 177.600,261.375 177.273,259.962 182.800 C 259.765 183.570,259.603 185.013,259.602 186.006 C 259.601 187.044,259.260 188.447,258.800 189.304 C 258.360 190.125,258.000 191.148,258.000 191.577 C 258.000 192.569,256.317 195.759,254.782 197.677 C 254.132 198.489,253.600 199.330,253.600 199.546 C 253.600 200.251,247.280 205.200,246.379 205.200 C 246.130 205.200,245.469 205.560,244.909 206.000 C 244.350 206.440,243.667 206.800,243.392 206.800 C 243.117 206.800,242.376 207.069,241.746 207.398 C 241.116 207.726,240.096 207.996,239.480 207.998 C 238.864 207.999,237.784 208.312,237.080 208.694 C 235.316 209.651,213.251 210.025,212.492 209.111 C 212.216 208.778,211.981 206.697,211.914 203.976 L 211.800 199.400 208.700 199.283 L 205.600 199.166 205.600 207.355 C 205.600 214.265,205.502 215.641,204.971 216.171 C 204.235 216.908,186.484 217.116,184.626 216.410 L 183.600 216.020 183.600 207.610 L 183.600 199.200 180.400 199.200 L 177.200 199.200 177.200 211.191 L 177.200 223.181 184.100 223.291 L 191.000 223.400 191.200 231.915 C 191.428 241.612,191.257 241.184,194.913 241.194 C 197.741 241.201,197.837 241.036,197.697 236.400 C 197.641 234.530,197.704 230.799,197.837 228.109 L 198.079 223.219 204.940 223.109 L 211.800 223.000 211.919 220.018 C 212.091 215.719,211.262 216.000,223.749 215.998 C 232.120 215.996,234.838 215.871,235.643 215.451 C 236.217 215.151,237.747 214.778,239.043 214.621 C 240.339 214.464,241.799 214.080,242.286 213.768 C 242.773 213.455,243.548 213.200,244.007 213.200 C 244.466 213.200,245.507 212.849,246.321 212.420 C 247.134 211.991,248.070 211.534,248.400 211.404 C 250.721 210.493,254.293 207.723,257.147 204.620 C 257.946 203.751,258.960 202.661,259.400 202.198 C 259.840 201.735,260.560 200.679,261.000 199.853 C 261.440 199.026,262.115 198.063,262.500 197.713 C 262.885 197.363,263.200 196.660,263.200 196.152 C 263.200 195.643,263.455 194.636,263.767 193.914 C 264.996 191.063,266.000 187.250,266.000 185.430 C 266.000 183.345,267.022 178.902,267.686 178.098 C 268.015 177.700,275.737 177.617,304.751 177.698 L 341.400 177.800 341.617 188.200 C 341.736 193.920,341.871 198.645,341.917 198.700 C 342.488 199.388,348.013 198.684,348.202 197.900 C 348.321 197.405,348.370 172.070,348.310 141.600 L 348.200 86.200 345.400 86.123 C 343.860 86.081,342.375 86.141,342.100 86.257 M341.105 142.333 C 341.500 142.583,341.587 145.713,341.505 156.620 L 341.400 170.587 339.800 170.854 C 337.727 171.200,269.986 171.312,268.630 170.972 C 267.402 170.663,267.108 165.910,268.200 164.000 C 268.514 163.450,268.778 162.511,268.786 161.912 C 268.798 160.957,269.738 158.602,270.826 156.800 C 271.025 156.470,271.460 155.595,271.793 154.855 C 272.624 153.005,277.482 148.253,279.805 147.018 C 280.856 146.459,281.916 145.836,282.160 145.633 C 282.405 145.430,283.143 145.133,283.802 144.972 C 284.461 144.812,285.355 144.437,285.789 144.140 C 286.223 143.843,287.180 143.600,287.915 143.600 C 288.651 143.600,289.646 143.389,290.126 143.131 C 290.607 142.872,291.540 142.531,292.200 142.371 C 293.855 141.972,340.479 141.935,341.105 142.333 M155.485 252.805 C 153.513 254.356,153.889 257.956,156.084 258.544 C 156.588 258.679,172.428 258.792,191.284 258.795 L 225.568 258.800 226.584 257.704 C 228.195 255.967,227.973 254.520,225.846 252.886 L 224.692 252.000 190.600 252.000 C 157.045 252.000,156.492 252.013,155.485 252.805 M155.308 267.109 C 153.727 268.334,153.757 271.423,155.360 272.494 C 156.304 273.125,243.460 272.851,243.987 272.216 C 244.937 271.071,244.948 268.692,244.009 267.500 L 243.142 266.400 199.671 266.409 C 159.102 266.417,156.140 266.464,155.308 267.109 M155.036 281.631 C 153.303 283.690,154.088 286.564,156.501 286.997 C 157.215 287.126,177.031 287.179,200.535 287.115 L 243.271 287.000 244.035 286.056 C 245.361 284.418,244.785 281.686,242.937 280.844 C 242.242 280.527,229.639 280.400,199.017 280.400 L 156.071 280.400 155.036 281.631 M155.153 295.557 C 153.955 296.528,153.856 299.136,154.971 300.368 L 155.724 301.200 199.362 301.194 C 223.363 301.191,243.198 301.056,243.440 300.894 C 244.978 299.867,245.221 296.935,243.874 295.670 L 242.948 294.800 199.519 294.800 C 157.501 294.800,156.058 294.825,155.153 295.557 M155.040 310.025 C 153.365 312.015,154.194 314.984,156.541 315.405 C 157.233 315.529,176.995 315.579,200.455 315.515 L 243.110 315.400 243.942 314.400 C 244.988 313.141,245.030 311.173,244.035 309.944 L 243.271 309.000 199.675 308.895 L 156.080 308.790 155.040 310.025 M51.067 327.067 C 50.920 327.213,50.800 328.564,50.800 330.067 L 50.800 332.801 199.500 332.701 L 348.200 332.600 348.325 330.627 C 348.394 329.541,348.345 328.236,348.217 327.727 L 347.985 326.800 199.659 326.800 C 118.080 326.800,51.213 326.920,51.067 327.067 " stroke="none" fill="#101010" fill-rule="evenodd"></path><path id="path1" d="M0.000 200.000 L 0.000 400.000 200.000 400.000 L 400.000 400.000 400.000 200.000 L 400.000 0.000 200.000 0.000 L 0.000 0.000 0.000 200.000 M57.321 85.700 C 57.921 86.146,58.006 87.464,58.097 97.800 L 58.200 109.400 106.800 109.400 L 155.400 109.400 155.498 98.400 C 155.564 90.929,155.746 87.111,156.065 86.500 L 156.535 85.600 194.619 85.600 C 225.867 85.600,232.781 85.696,233.145 86.133 C 233.439 86.489,233.623 90.463,233.694 98.033 L 233.800 109.400 286.957 109.501 C 325.910 109.576,340.260 109.483,340.657 109.152 C 341.091 108.793,341.200 106.423,341.200 97.365 C 341.200 86.566,341.237 86.009,341.974 85.614 C 342.810 85.166,347.135 85.047,348.167 85.443 C 348.740 85.663,348.800 91.040,348.800 142.253 L 348.800 198.820 347.774 199.210 C 346.456 199.711,343.544 199.711,342.226 199.210 L 341.200 198.820 341.200 188.824 C 341.200 179.351,341.160 178.806,340.426 178.414 C 339.455 177.895,269.261 177.847,268.443 178.365 C 267.834 178.751,267.380 180.784,266.739 185.996 C 266.509 187.863,266.069 189.880,265.761 190.476 C 265.452 191.072,265.194 191.884,265.186 192.280 C 265.179 192.676,264.825 193.720,264.400 194.600 C 263.975 195.480,263.621 196.493,263.614 196.851 C 263.606 197.209,263.317 197.737,262.972 198.024 C 262.626 198.311,262.131 199.054,261.872 199.676 C 260.590 202.747,252.472 210.800,250.656 210.800 C 250.332 210.800,250.007 210.951,249.933 211.137 C 249.732 211.646,245.641 213.600,244.777 213.600 C 244.360 213.600,243.430 213.959,242.710 214.399 C 241.989 214.838,240.747 215.198,239.949 215.199 C 239.151 215.199,237.845 215.473,237.047 215.806 C 235.927 216.274,233.035 216.472,224.381 216.671 C 218.214 216.813,213.094 217.048,213.005 217.192 C 212.916 217.336,212.754 218.697,212.645 220.215 C 212.373 224.011,212.396 224.000,204.724 224.000 L 198.400 224.000 198.400 232.226 C 198.400 242.278,198.507 242.000,194.635 242.000 C 190.676 242.000,190.835 242.382,190.708 232.569 L 190.600 224.200 183.932 224.000 C 180.265 223.890,177.115 223.650,176.932 223.467 C 176.749 223.284,176.510 217.794,176.400 211.267 L 176.200 199.400 168.942 199.291 C 163.123 199.204,161.586 199.065,161.193 198.591 C 160.923 198.266,160.358 198.000,159.938 198.000 C 159.001 198.000,156.805 195.829,156.787 194.886 C 156.780 194.509,156.510 193.851,156.187 193.424 C 155.724 192.810,155.600 191.194,155.600 185.738 C 155.600 179.316,155.545 178.799,154.826 178.414 C 153.990 177.967,60.554 177.809,58.900 178.252 L 58.000 178.493 58.000 188.657 L 58.000 198.820 56.900 199.244 C 55.367 199.836,50.843 199.514,50.379 198.779 C 49.786 197.842,49.885 86.275,50.480 85.680 C 51.126 85.034,56.445 85.050,57.321 85.700 M58.184 118.100 C 58.079 118.375,58.039 130.210,58.096 144.400 L 58.200 170.200 106.575 170.302 C 145.012 170.382,155.016 170.300,155.269 169.902 C 155.444 169.626,155.591 157.745,155.594 143.500 L 155.600 117.600 106.987 117.600 C 68.466 117.600,58.335 117.704,58.184 118.100 M233.867 117.867 C 233.533 118.200,233.510 168.901,233.843 169.767 C 234.057 170.326,235.593 170.400,247.000 170.400 C 261.572 170.400,260.400 170.696,260.400 167.016 C 260.400 165.851,260.648 164.291,260.951 163.549 C 261.254 162.807,261.622 161.360,261.770 160.333 C 261.918 159.306,262.300 158.249,262.620 157.984 C 262.939 157.719,263.200 157.156,263.200 156.734 C 263.200 153.292,273.838 140.800,276.769 140.800 C 276.952 140.800,277.317 140.542,277.579 140.226 C 277.841 139.910,278.570 139.538,279.200 139.400 C 279.830 139.262,280.559 138.890,280.821 138.574 C 281.083 138.258,281.681 137.994,282.149 137.986 C 282.617 137.979,283.720 137.625,284.600 137.200 C 285.480 136.775,286.763 136.421,287.451 136.414 C 288.139 136.406,289.349 136.130,290.138 135.800 C 291.360 135.290,295.145 135.199,315.487 135.195 C 328.639 135.192,339.805 135.081,340.300 134.948 C 341.306 134.678,341.732 120.142,340.786 118.374 C 340.366 117.589,234.646 117.088,233.867 117.867 M291.854 143.401 C 291.224 143.730,290.081 144.000,289.315 144.000 C 283.649 144.000,270.800 153.962,270.800 158.354 C 270.800 158.601,270.440 159.475,270.000 160.296 C 269.560 161.116,269.200 162.264,269.200 162.845 C 269.200 163.427,268.920 164.571,268.579 165.389 C 268.237 166.207,268.012 167.624,268.079 168.538 L 268.200 170.200 304.309 170.302 L 340.418 170.404 340.815 169.361 C 341.055 168.730,341.170 163.329,341.106 155.659 L 341.000 143.000 317.000 142.901 C 296.323 142.815,292.841 142.884,291.854 143.401 M234.299 178.500 C 233.742 178.926,233.626 180.130,233.522 186.600 L 233.400 194.200 232.231 195.728 C 229.942 198.721,228.255 199.200,220.013 199.200 C 214.524 199.200,212.793 199.320,212.772 199.700 C 212.757 199.975,212.712 202.090,212.672 204.400 L 212.600 208.600 223.392 208.707 C 232.287 208.795,234.450 208.707,235.700 208.207 C 236.534 207.873,237.708 207.594,238.308 207.586 C 238.909 207.579,240.120 207.225,241.000 206.800 C 241.880 206.375,242.983 206.021,243.451 206.014 C 243.919 206.006,244.520 205.737,244.787 205.415 C 245.054 205.094,245.661 204.712,246.136 204.566 C 248.603 203.809,256.000 196.230,256.000 194.459 C 256.000 194.217,256.359 193.430,256.799 192.710 C 257.238 191.989,257.603 191.040,257.611 190.600 C 257.619 190.160,257.890 189.451,258.213 189.024 C 258.536 188.596,258.800 187.461,258.800 186.500 C 258.800 185.539,258.999 183.470,259.242 181.902 C 259.643 179.318,259.617 179.002,258.966 178.526 C 257.952 177.784,235.266 177.761,234.299 178.500 M184.581 199.705 C 184.472 199.990,184.431 203.728,184.491 208.012 L 184.600 215.800 194.600 215.800 L 204.600 215.800 204.600 207.600 L 204.600 199.400 194.690 199.293 C 186.862 199.208,184.738 199.295,184.581 199.705 M226.878 252.675 C 228.398 254.131,228.445 256.528,226.984 258.104 L 225.968 259.200 191.010 259.200 C 171.269 259.200,155.640 259.043,155.105 258.840 C 153.071 258.067,152.938 253.821,154.900 252.310 C 155.738 251.666,158.230 251.617,190.778 251.609 L 225.756 251.600 226.878 252.675 M243.388 266.169 C 246.392 267.424,246.128 272.650,243.028 273.292 C 240.106 273.897,155.419 273.480,154.668 272.857 C 152.882 271.374,153.205 267.682,155.247 266.252 C 156.571 265.325,241.176 265.245,243.388 266.169 M244.380 281.065 C 245.939 283.047,245.736 286.271,243.994 287.203 C 243.026 287.722,156.444 287.749,155.083 287.231 C 153.892 286.779,153.184 284.404,153.678 282.518 C 154.383 279.826,151.197 280.000,199.660 280.000 L 243.542 280.000 244.380 281.065 M244.489 295.111 C 245.626 296.249,245.727 298.937,244.691 300.518 L 243.982 301.600 199.400 301.600 L 154.818 301.600 154.242 300.700 C 153.498 299.538,153.374 298.552,153.739 296.704 C 154.305 293.842,151.241 294.014,199.889 294.112 L 243.578 294.200 244.489 295.111 M243.994 308.797 C 245.858 309.795,245.933 313.765,244.115 315.195 C 242.937 316.122,156.882 316.500,155.173 315.586 C 153.257 314.560,152.968 311.003,154.650 309.145 C 155.427 308.287,242.408 307.948,243.994 308.797 M348.557 326.633 C 349.084 328.005,348.813 332.730,348.171 333.371 C 347.602 333.941,333.541 334.000,199.394 334.000 L 51.245 334.000 50.623 333.111 C 49.904 332.085,49.769 327.979,50.414 326.774 C 51.000 325.678,348.137 325.537,348.557 326.633 " stroke="none" fill="#fbfbfb" fill-rule="evenodd"></path><path id="path2" d="M156.148 170.819 C 155.633 170.999,155.536 171.649,155.614 174.419 C 155.666 176.279,155.785 180.950,155.879 184.800 C 155.973 188.650,156.219 191.971,156.425 192.180 C 156.631 192.389,156.800 192.827,156.800 193.154 C 156.800 194.581,158.471 197.200,159.382 197.200 C 159.882 197.200,160.759 197.568,161.331 198.017 C 162.208 198.707,205.398 199.666,211.800 199.138 C 212.020 199.119,215.530 199.034,219.600 198.947 C 231.980 198.684,232.668 198.042,232.868 186.563 C 232.941 182.403,233.174 178.730,233.386 178.400 C 233.598 178.070,233.793 176.225,233.818 174.300 L 233.865 170.800 232.232 170.761 C 225.294 170.595,156.639 170.648,156.148 170.819 " stroke="none" fill="#980a82" fill-rule="evenodd"></path><path id="path3" d="M50.480 85.680 C 49.885 86.275,49.786 197.842,50.379 198.779 C 50.843 199.514,55.367 199.836,56.900 199.244 L 58.000 198.820 58.000 188.657 L 58.000 178.493 58.900 178.252 C 60.554 177.809,153.990 177.967,154.826 178.414 C 155.545 178.799,155.600 179.316,155.600 185.738 C 155.600 191.194,155.724 192.810,156.187 193.424 C 156.510 193.851,156.780 194.509,156.787 194.886 C 156.805 195.829,159.001 198.000,159.938 198.000 C 160.358 198.000,160.923 198.266,161.193 198.591 C 161.586 199.065,163.123 199.204,168.942 199.291 L 176.200 199.400 176.400 211.267 C 176.510 217.794,176.749 223.284,176.932 223.467 C 177.115 223.650,180.265 223.890,183.932 224.000 L 190.600 224.200 190.708 232.569 C 190.835 242.382,190.676 242.000,194.635 242.000 C 198.507 242.000,198.400 242.278,198.400 232.226 L 198.400 224.000 204.724 224.000 C 212.396 224.000,212.373 224.011,212.645 220.215 C 212.754 218.697,212.916 217.336,213.005 217.192 C 213.094 217.048,218.214 216.813,224.381 216.671 C 233.035 216.472,235.927 216.274,237.047 215.806 C 237.845 215.473,239.151 215.199,239.949 215.199 C 240.747 215.198,241.989 214.838,242.710 214.399 C 243.430 213.959,244.360 213.600,244.777 213.600 C 245.641 213.600,249.732 211.646,249.933 211.137 C 250.007 210.951,250.332 210.800,250.656 210.800 C 252.472 210.800,260.590 202.747,261.872 199.676 C 262.131 199.054,262.626 198.311,262.972 198.024 C 263.317 197.737,263.606 197.209,263.614 196.851 C 263.621 196.493,263.975 195.480,264.400 194.600 C 264.825 193.720,265.179 192.676,265.186 192.280 C 265.194 191.884,265.452 191.072,265.761 190.476 C 266.069 189.880,266.509 187.863,266.739 185.996 C 267.380 180.784,267.834 178.751,268.443 178.365 C 269.261 177.847,339.455 177.895,340.426 178.414 C 341.160 178.806,341.200 179.351,341.200 188.824 L 341.200 198.820 342.226 199.210 C 343.544 199.711,346.456 199.711,347.774 199.210 L 348.800 198.820 348.800 142.253 C 348.800 91.040,348.740 85.663,348.167 85.443 C 347.135 85.047,342.810 85.166,341.974 85.614 C 341.237 86.008,341.200 86.566,341.200 97.334 C 341.200 105.594,341.071 108.769,340.720 109.120 C 340.351 109.489,327.904 109.600,287.128 109.600 L 234.015 109.600 233.831 110.500 C 233.428 112.466,233.189 116.307,233.430 116.935 C 233.667 117.550,237.657 117.600,287.029 117.600 C 339.358 117.600,340.380 117.615,340.786 118.374 C 341.732 120.142,341.306 134.678,340.300 134.948 C 339.805 135.081,328.639 135.192,315.487 135.195 C 295.145 135.199,291.360 135.290,290.138 135.800 C 289.349 136.130,288.139 136.406,287.451 136.414 C 286.763 136.421,285.480 136.775,284.600 137.200 C 283.720 137.625,282.617 137.979,282.149 137.986 C 281.681 137.994,281.083 138.258,280.821 138.574 C 280.559 138.890,279.830 139.262,279.200 139.400 C 278.570 139.538,277.841 139.910,277.579 140.226 C 277.317 140.542,276.952 140.800,276.769 140.800 C 273.838 140.800,263.200 153.292,263.200 156.734 C 263.200 157.156,262.939 157.719,262.620 157.984 C 262.300 158.249,261.918 159.306,261.770 160.333 C 261.622 161.360,261.254 162.807,260.951 163.549 C 260.648 164.291,260.400 165.851,260.400 167.016 C 260.400 170.696,261.577 170.400,246.957 170.400 C 239.831 170.400,233.961 170.355,233.913 170.300 C 233.865 170.245,233.730 163.990,233.613 156.400 L 233.400 142.600 194.500 142.498 L 155.600 142.396 155.594 155.898 C 155.591 163.324,155.444 169.626,155.269 169.902 C 155.016 170.300,145.012 170.382,106.575 170.302 L 58.200 170.200 58.200 144.000 L 58.200 117.800 107.100 117.698 L 156.000 117.597 155.940 115.498 C 155.901 114.142,155.818 113.824,155.705 114.600 C 155.608 115.260,155.343 116.025,155.116 116.300 C 154.789 116.695,144.554 116.800,106.400 116.800 C 66.142 116.800,58.023 116.891,57.646 117.344 C 57.318 117.740,57.222 125.108,57.297 144.240 L 57.400 170.590 59.400 170.889 C 60.500 171.053,82.730 171.140,108.800 171.083 C 134.870 171.026,173.030 170.941,193.600 170.895 C 214.170 170.849,237.245 170.897,244.879 171.003 C 260.952 171.227,260.800 171.251,260.800 168.496 C 260.800 167.438,261.160 165.548,261.600 164.296 C 262.040 163.044,262.400 161.408,262.400 160.659 C 262.400 159.910,262.670 159.074,263.000 158.800 C 263.330 158.526,263.600 158.009,263.601 157.651 C 263.602 156.864,266.615 150.928,267.424 150.119 C 267.741 149.802,268.000 149.404,268.000 149.234 C 268.000 148.697,273.967 143.030,274.893 142.687 C 275.379 142.507,275.872 142.207,275.989 142.019 C 276.294 141.526,281.595 138.917,283.005 138.565 C 283.662 138.401,284.920 137.941,285.800 137.542 C 286.680 137.144,288.063 136.814,288.874 136.809 C 289.685 136.804,290.855 136.575,291.474 136.300 C 292.318 135.925,298.717 135.750,317.000 135.600 L 341.400 135.400 341.513 127.000 C 341.575 122.380,341.527 118.195,341.406 117.700 L 341.185 116.800 287.635 116.800 C 245.164 116.800,234.046 116.697,233.894 116.300 C 233.789 116.025,233.815 114.630,233.951 113.200 L 234.200 110.600 287.361 110.499 C 325.841 110.425,340.670 110.273,341.061 109.950 C 341.490 109.593,341.600 107.153,341.600 97.959 L 341.600 86.415 342.517 86.185 C 343.021 86.059,344.506 86.010,345.817 86.078 L 348.200 86.200 348.310 141.600 C 348.370 172.070,348.321 197.405,348.202 197.900 C 348.013 198.684,342.488 199.388,341.917 198.700 C 341.871 198.645,341.736 193.920,341.617 188.200 L 341.400 177.800 304.751 177.698 C 275.737 177.617,268.015 177.700,267.686 178.098 C 267.022 178.902,266.000 183.345,266.000 185.430 C 266.000 187.250,264.996 191.063,263.767 193.914 C 263.455 194.636,263.200 195.643,263.200 196.152 C 263.200 196.660,262.885 197.363,262.500 197.713 C 262.115 198.063,261.440 199.026,261.000 199.853 C 260.560 200.679,259.840 201.735,259.400 202.198 C 258.960 202.661,257.946 203.751,257.147 204.620 C 254.293 207.723,250.721 210.493,248.400 211.404 C 248.070 211.534,247.134 211.991,246.321 212.420 C 245.507 212.849,244.466 213.200,244.007 213.200 C 243.548 213.200,242.773 213.455,242.286 213.768 C 241.799 214.080,240.339 214.464,239.043 214.621 C 237.747 214.778,236.217 215.151,235.643 215.451 C 234.838 215.871,232.120 215.996,223.749 215.998 C 211.262 216.000,212.091 215.719,211.919 220.018 L 211.800 223.000 204.940 223.109 L 198.079 223.219 197.837 228.109 C 197.704 230.799,197.641 234.530,197.697 236.400 C 197.837 241.036,197.741 241.201,194.913 241.194 C 191.257 241.184,191.428 241.612,191.200 231.915 L 191.000 223.400 184.100 223.291 L 177.200 223.181 177.200 211.233 C 177.200 200.708,177.125 199.257,176.567 199.043 C 176.219 198.909,172.873 198.800,169.130 198.800 C 162.932 198.800,162.236 198.729,161.309 198.000 C 160.750 197.560,159.882 197.200,159.382 197.200 C 158.454 197.200,156.800 194.572,156.800 193.097 C 156.800 192.740,156.620 192.336,156.400 192.200 C 156.161 192.052,155.998 189.423,155.995 185.676 C 155.992 182.224,155.881 178.995,155.748 178.500 L 155.507 177.600 106.802 177.600 C 66.747 177.600,58.019 177.695,57.656 178.132 C 57.366 178.481,57.177 182.098,57.107 188.632 L 57.000 198.600 53.900 198.717 L 50.800 198.834 50.800 142.400 L 50.800 85.966 53.900 86.083 L 57.000 86.200 57.106 97.767 C 57.177 105.485,57.360 109.511,57.655 109.867 C 58.020 110.306,66.594 110.401,106.149 110.406 C 156.096 110.412,154.994 110.377,155.320 112.000 C 155.436 112.577,155.496 112.323,155.461 111.400 L 155.400 109.800 106.800 109.600 L 58.200 109.400 58.097 97.800 C 58.006 87.464,57.921 86.146,57.321 85.700 C 56.445 85.050,51.126 85.034,50.480 85.680 M292.200 142.371 C 291.540 142.531,290.607 142.872,290.126 143.131 C 289.646 143.389,288.651 143.600,287.915 143.600 C 287.180 143.600,286.223 143.843,285.789 144.140 C 285.355 144.437,284.461 144.812,283.802 144.972 C 283.143 145.133,282.405 145.430,282.160 145.633 C 281.916 145.836,280.856 146.459,279.805 147.018 C 277.482 148.253,272.624 153.005,271.793 154.855 C 271.460 155.595,271.025 156.470,270.826 156.800 C 269.738 158.602,268.798 160.957,268.786 161.912 C 268.778 162.511,268.514 163.450,268.200 164.000 C 267.108 165.910,267.402 170.663,268.630 170.972 C 269.986 171.312,337.727 171.200,339.800 170.854 L 341.400 170.587 341.505 156.620 C 341.587 145.713,341.500 142.583,341.105 142.333 C 340.479 141.935,293.855 141.972,292.200 142.371 M341.106 155.659 C 341.170 163.329,341.055 168.730,340.815 169.361 L 340.418 170.404 304.309 170.302 L 268.200 170.200 268.079 168.538 C 268.012 167.624,268.237 166.207,268.579 165.389 C 268.920 164.571,269.200 163.427,269.200 162.845 C 269.200 162.264,269.560 161.116,270.000 160.296 C 270.440 159.475,270.800 158.601,270.800 158.354 C 270.800 155.784,277.110 149.133,281.663 146.905 C 286.839 144.372,287.818 144.000,289.315 144.000 C 290.081 144.000,291.224 143.730,291.854 143.401 C 292.841 142.884,296.323 142.815,317.000 142.901 L 341.000 143.000 341.106 155.659 M233.549 178.260 C 233.137 178.756,232.967 180.824,232.868 186.523 C 232.668 198.024,231.868 198.800,220.195 198.800 C 216.384 198.800,212.981 198.909,212.633 199.043 C 211.736 199.387,211.694 208.448,212.586 209.188 C 213.597 210.028,235.431 209.587,237.080 208.693 C 237.784 208.312,238.864 207.999,239.480 207.998 C 240.096 207.996,241.116 207.726,241.746 207.398 C 242.376 207.069,243.117 206.800,243.392 206.800 C 243.667 206.800,244.350 206.440,244.909 206.000 C 245.469 205.560,246.130 205.200,246.379 205.200 C 247.280 205.200,253.600 200.251,253.600 199.546 C 253.600 199.330,254.132 198.489,254.782 197.677 C 256.317 195.759,258.000 192.569,258.000 191.577 C 258.000 191.148,258.360 190.125,258.800 189.304 C 259.260 188.447,259.601 187.044,259.602 186.006 C 259.603 185.013,259.765 183.570,259.962 182.800 C 261.375 177.274,262.198 177.600,246.820 177.600 C 235.482 177.600,234.038 177.672,233.549 178.260 M258.966 178.526 C 259.617 179.002,259.643 179.318,259.242 181.902 C 258.999 183.470,258.800 185.539,258.800 186.500 C 258.800 187.461,258.536 188.596,258.213 189.024 C 257.890 189.451,257.619 190.160,257.611 190.600 C 257.603 191.040,257.238 191.989,256.799 192.710 C 256.359 193.430,256.000 194.217,256.000 194.459 C 256.000 196.230,248.603 203.809,246.136 204.566 C 245.661 204.712,245.054 205.094,244.787 205.415 C 244.520 205.737,243.919 206.006,243.451 206.014 C 242.983 206.021,241.880 206.375,241.000 206.800 C 240.120 207.225,238.909 207.579,238.308 207.586 C 237.708 207.594,236.534 207.873,235.700 208.207 C 234.450 208.707,232.287 208.795,223.392 208.707 L 212.600 208.600 212.672 204.400 C 212.712 202.090,212.757 199.975,212.772 199.700 C 212.793 199.320,214.524 199.200,220.013 199.200 C 228.255 199.200,229.942 198.721,232.231 195.728 L 233.400 194.200 233.522 186.600 C 233.626 180.130,233.742 178.926,234.299 178.500 C 235.266 177.761,257.952 177.784,258.966 178.526 M184.100 199.065 C 183.722 199.217,183.600 201.316,183.600 207.643 L 183.600 216.020 184.626 216.410 C 186.484 217.116,204.235 216.908,204.971 216.171 C 205.917 215.226,205.913 199.406,204.967 199.043 C 204.213 198.753,184.821 198.774,184.100 199.065 M204.600 207.600 L 204.600 215.800 194.600 215.800 L 184.600 215.800 184.491 208.012 C 184.431 203.728,184.472 199.990,184.581 199.705 C 184.738 199.295,186.862 199.208,194.690 199.293 L 204.600 199.400 204.600 207.600 M154.900 252.310 C 152.938 253.821,153.071 258.067,155.105 258.840 C 155.640 259.043,171.269 259.200,191.010 259.200 L 225.968 259.200 226.984 258.104 C 228.445 256.528,228.398 254.131,226.878 252.675 L 225.756 251.600 190.778 251.609 C 158.230 251.617,155.738 251.666,154.900 252.310 M225.846 252.886 C 227.973 254.520,228.195 255.967,226.584 257.704 L 225.568 258.800 191.284 258.795 C 172.428 258.792,156.588 258.679,156.084 258.544 C 153.889 257.956,153.513 254.356,155.485 252.805 C 156.492 252.013,157.045 252.000,190.600 252.000 L 224.692 252.000 225.846 252.886 M155.247 266.252 C 153.205 267.682,152.882 271.374,154.668 272.857 C 155.419 273.480,240.106 273.897,243.028 273.292 C 246.128 272.650,246.392 267.424,243.388 266.169 C 241.176 265.245,156.571 265.325,155.247 266.252 M244.009 267.500 C 244.948 268.692,244.937 271.071,243.987 272.216 C 243.460 272.851,156.304 273.125,155.360 272.494 C 153.757 271.423,153.727 268.334,155.308 267.109 C 156.140 266.464,159.102 266.417,199.671 266.409 L 243.142 266.400 244.009 267.500 M154.896 280.618 C 152.997 281.948,153.125 286.487,155.083 287.231 C 156.444 287.749,243.026 287.722,243.994 287.203 C 245.736 286.271,245.939 283.047,244.380 281.065 L 243.542 280.000 199.660 280.000 C 160.735 280.000,155.678 280.070,154.896 280.618 M242.937 280.844 C 244.785 281.686,245.361 284.418,244.035 286.056 L 243.271 287.000 200.535 287.115 C 177.031 287.179,157.215 287.126,156.501 286.997 C 154.088 286.564,153.303 283.690,155.036 281.631 L 156.071 280.400 199.017 280.400 C 229.639 280.400,242.242 280.527,242.937 280.844 M155.117 294.616 C 153.453 295.525,152.989 298.745,154.242 300.700 L 154.818 301.600 199.400 301.600 L 243.982 301.600 244.691 300.518 C 245.727 298.937,245.626 296.249,244.489 295.111 L 243.578 294.200 199.889 294.112 C 161.975 294.036,156.057 294.103,155.117 294.616 M243.874 295.670 C 245.221 296.935,244.978 299.867,243.440 300.894 C 243.198 301.056,223.363 301.191,199.362 301.194 L 155.724 301.200 154.971 300.368 C 153.856 299.136,153.955 296.528,155.153 295.557 C 156.058 294.825,157.501 294.800,199.519 294.800 L 242.948 294.800 243.874 295.670 M154.650 309.145 C 152.968 311.003,153.257 314.560,155.173 315.586 C 156.882 316.500,242.937 316.122,244.115 315.195 C 245.933 313.765,245.858 309.795,243.994 308.797 C 242.408 307.948,155.427 308.287,154.650 309.145 M244.035 309.944 C 245.030 311.173,244.988 313.141,243.942 314.400 L 243.110 315.400 200.455 315.515 C 176.995 315.579,157.233 315.529,156.541 315.405 C 154.194 314.984,153.365 312.015,155.040 310.025 L 156.080 308.790 199.675 308.895 L 243.271 309.000 244.035 309.944 M50.414 326.774 C 49.769 327.979,49.904 332.085,50.623 333.111 L 51.245 334.000 199.394 334.000 C 333.541 334.000,347.602 333.941,348.171 333.371 C 348.813 332.730,349.084 328.005,348.557 326.633 C 348.137 325.537,51.000 325.678,50.414 326.774 M348.217 327.727 C 348.345 328.236,348.394 329.541,348.325 330.627 L 348.200 332.600 199.500 332.701 L 50.800 332.801 50.800 330.067 C 50.800 328.564,50.920 327.213,51.067 327.067 C 51.213 326.920,118.080 326.800,199.659 326.800 L 347.985 326.800 348.217 327.727 " stroke="none" fill="#ba494b" fill-rule="evenodd"></path><path id="path4" d="M156.106 86.380 C 155.748 86.953,155.625 90.630,155.643 100.280 C 155.656 107.496,155.634 119.923,155.594 127.896 L 155.521 142.392 194.561 142.496 L 233.600 142.600 233.647 130.200 C 233.673 123.380,233.629 117.620,233.549 117.400 C 233.344 116.836,233.528 112.075,233.819 110.400 C 233.984 109.453,233.931 109.129,233.655 109.400 C 233.431 109.620,233.098 110.700,232.915 111.800 L 232.581 113.800 195.591 113.910 C 153.494 114.035,156.988 114.233,156.651 111.706 C 156.273 108.881,156.328 86.712,156.713 86.327 C 156.895 86.145,174.134 86.042,195.022 86.098 L 233.000 86.200 233.237 88.200 L 233.474 90.200 233.537 88.380 C 233.640 85.387,236.617 85.600,194.616 85.600 C 157.358 85.600,156.583 85.616,156.106 86.380 M233.369 98.600 C 233.370 103.220,233.428 105.055,233.499 102.678 C 233.570 100.301,233.569 96.521,233.498 94.278 C 233.427 92.035,233.369 93.980,233.369 98.600 " stroke="none" fill="#d57926" fill-rule="evenodd"></path><path id="path5" d="M156.614 86.377 C 156.299 86.887,156.331 109.313,156.651 111.706 C 156.988 114.233,153.494 114.035,195.593 113.910 L 232.586 113.800 232.906 112.200 C 233.256 110.451,233.310 86.901,232.965 86.344 C 232.669 85.864,156.911 85.897,156.614 86.377 " stroke="none" fill="#f1aa03" fill-rule="evenodd"></path></g></svg>